# xmcd CD database file
#
# Track frame offsets:
#	150
#	18738
#	42615
#	67076
#	114406
#	136493
#	157582
#
# Disc length: 2244 seconds
#
# Revision: 0
# Processed by: cddbd v1.5.2PL0 Copyright (c) Steve Scherf et al.
# Submitted via: CDex 1.70beta2
#
DISCID=5d08c207
DTITLE=ギターララバイ - 個人的ギター
DYEAR=2007
DGENRE=Jazz
TTITLE0=固茹でマドンナのジレンマ
TTITLE1=はじめまして、僕の夜。これからも、どうかよろしく。
TTITLE2=卵を愛でる
TTITLE3=時制の不一致
TTITLE4=シンガー・ノンポリシー・フォークソングライター
TTITLE5=12/10（月）　曇り
TTITLE6=さよならブルース
EXTD=YEAR: 2007
EXTT0=
EXTT1=
EXTT2=
EXTT3=
EXTT4=
EXTT5=
EXTT6=
PLAYORDER=
